<?xml version="1.0" standalone="no"?>
<!DOCTYPE svg PUBLIC "-//W3C//DTD SVG 20010904//EN"
 "http://www.w3.org/TR/2001/REC-SVG-20010904/DTD/svg10.dtd">
<svg version="1.0" xmlns="http://www.w3.org/2000/svg"
 width="512.000000pt" height="512.000000pt" viewBox="0 0 512.000000 512.000000"
 preserveAspectRatio="xMidYMid meet">

<g transform="translate(0.000000,512.000000) scale(0.100000,-0.100000)"
fill="#000000" stroke="none">
<path d="M1925 4292 c-65 -26 -86 -55 -140 -192 -19 -50 -31 -77 -69 -163 -14
-32 -26 -62 -26 -67 0 -6 -4 -18 -10 -28 -9 -17 -21 -46 -55 -132 -10 -25 -28
-69 -41 -98 -13 -29 -24 -57 -24 -63 0 -6 -6 -23 -14 -37 -25 -49 -46 -102
-46 -117 0 -8 -4 -15 -10 -15 -5 0 -10 -8 -10 -19 0 -10 -7 -32 -15 -47 -8
-16 -15 -36 -15 -44 0 -9 -4 -20 -8 -25 -4 -6 -16 -35 -26 -65 -11 -30 -23
-59 -27 -65 -5 -5 -9 -18 -9 -28 0 -11 -7 -25 -16 -32 -9 -6 -14 -20 -12 -31
2 -13 13 0 37 46 27 53 51 99 68 129 2 2 9 -2 17 -8 10 -8 16 -9 21 -1 12 20
35 10 35 -15 0 -28 15 -33 24 -9 6 15 10 14 31 -6 14 -13 25 -32 25 -42 0 -10
5 -18 10 -18 6 0 10 5 10 10 0 14 27 12 34 -2 5 -10 7 -10 12 0 10 21 31 13
68 -28 28 -31 38 -37 42 -25 13 32 40 15 35 -22 -2 -16 11 -17 26 -2 15 15 33
3 34 -24 1 -20 2 -20 8 3 10 35 41 40 41 6 0 -21 5 -26 25 -26 20 0 25 -5 25
-25 0 -31 17 -33 22 -2 5 39 33 26 37 -18 3 -34 5 -37 10 -15 10 35 41 40 41
6 0 -29 15 -35 24 -10 5 13 9 14 21 4 8 -7 12 -16 9 -21 -11 -18 8 -30 20 -13
16 21 36 10 36 -19 0 -16 3 -18 12 -9 20 20 38 14 38 -13 0 -28 15 -34 24 -9
3 8 10 13 15 10 5 -4 3 -26 -5 -53 -8 -25 -14 -56 -13 -67 1 -16 3 -14 9 8 5
16 13 32 17 35 9 7 73 136 73 148 0 4 12 33 26 63 14 30 33 71 41 90 8 19 21
48 29 63 8 16 14 35 14 43 0 8 4 14 9 14 5 0 11 14 15 31 3 17 20 44 36 59
l30 28 -24 36 c-13 20 -39 71 -56 114 -18 42 -43 100 -55 127 -13 28 -44 100
-70 160 -62 146 -67 157 -109 248 -20 43 -36 82 -36 86 0 23 -58 130 -93 171
-42 50 -125 63 -202 32z m382 -1424 c-3 -7 -5 -2 -5 12 0 14 2 19 5 13 2 -7 2
-19 0 -25z"/>
<path d="M3170 4270 c0 -5 5 -10 10 -10 6 0 10 5 10 10 0 6 -4 10 -10 10 -5 0
-10 -4 -10 -10z"/>
<path d="M3286 4075 c4 -8 8 -15 10 -15 2 0 4 7 4 15 0 8 -4 15 -10 15 -5 0
-7 -7 -4 -15z"/>
<path d="M3307 4018 c9 -38 36 -98 45 -98 4 0 8 -13 8 -30 0 -16 5 -30 10 -30
6 0 10 -13 10 -29 0 -16 7 -34 15 -41 8 -7 15 -21 15 -31 0 -23 -29 -59 -48
-59 -7 0 -24 -12 -37 -26 -21 -23 -27 -25 -41 -13 -14 12 -20 9 -41 -16 -24
-27 -26 -28 -39 -11 -12 17 -14 17 -38 -10 -20 -23 -27 -27 -37 -16 -20 19
-29 15 -29 -13 0 -16 -6 -25 -15 -25 -8 0 -15 5 -15 10 0 6 -7 10 -16 10 -11
0 -13 -6 -9 -19 8 -25 -15 -39 -27 -17 -11 20 -28 12 -28 -15 0 -20 -15 -26
-25 -9 -11 18 -25 10 -25 -15 0 -16 -6 -25 -15 -25 -8 0 -15 5 -15 10 0 6 -7
10 -16 10 -11 0 -13 -6 -9 -19 8 -26 -13 -37 -29 -16 -11 15 -13 15 -25 1 -8
-9 -26 -16 -41 -16 -15 0 -33 -7 -40 -15 -7 -8 -21 -15 -31 -15 -11 0 -19 -4
-19 -10 0 -5 -7 -10 -15 -10 -8 0 -15 5 -15 10 0 6 7 13 15 16 17 7 20 24 5
24 -16 0 -51 -40 -45 -51 8 -11 -36 -60 -47 -53 -14 9 -9 24 8 24 17 0 14 22
-4 28 -7 2 -12 -3 -12 -12 0 -9 -4 -16 -10 -16 -16 0 -11 -42 6 -55 14 -10 14
-15 3 -33 -11 -17 -11 -24 -1 -34 6 -6 12 -22 12 -35 0 -13 4 -23 9 -23 5 0
13 -14 16 -32 4 -17 18 -51 31 -76 13 -25 24 -53 24 -63 0 -11 5 -19 10 -19 6
0 10 -8 10 -17 0 -10 7 -31 15 -47 8 -15 15 -36 15 -46 0 -10 7 -23 15 -30 8
-7 15 -20 15 -29 0 -14 29 -81 66 -153 8 -14 14 -33 14 -41 0 -8 11 -35 25
-61 14 -26 25 -53 25 -61 0 -7 6 -26 14 -42 22 -43 61 -133 81 -183 9 -25 28
-68 41 -95 13 -28 24 -56 24 -64 0 -7 6 -25 14 -39 7 -15 19 -40 26 -57 7 -16
20 -46 28 -65 15 -34 27 -62 52 -125 21 -53 42 -99 56 -127 8 -14 14 -36 14
-47 0 -12 5 -21 10 -21 6 0 10 -5 10 -11 0 -6 7 -27 16 -47 9 -21 23 -53 32
-72 8 -19 19 -43 23 -52 5 -10 9 -22 9 -27 0 -5 14 -39 30 -74 17 -36 30 -70
30 -75 0 -9 32 -78 62 -136 5 -10 12 -30 14 -45 3 -14 9 -27 15 -29 5 -2 9
-10 9 -19 0 -8 6 -27 14 -41 8 -15 22 -45 31 -67 33 -79 37 -90 50 -120 7 -16
20 -46 29 -67 9 -20 16 -43 16 -52 0 -9 5 -16 10 -16 6 0 10 -7 10 -16 0 -9 6
-28 14 -42 13 -24 24 -49 58 -132 5 -14 16 -38 24 -53 8 -16 14 -36 14 -45 0
-10 8 -22 18 -28 22 -13 1077 -20 1086 -6 3 5 -6 33 -21 63 -26 55 -39 83 -68
154 -25 60 -36 87 -50 120 -13 30 -37 88 -57 135 -23 56 -36 87 -51 120 -8 19
-27 61 -41 93 -14 32 -26 63 -26 70 0 6 -7 21 -15 31 -8 11 -15 28 -15 38 0
10 -4 18 -10 18 -5 0 -10 7 -10 15 0 15 -21 68 -46 117 -8 14 -14 33 -14 42 0
9 -4 16 -10 16 -5 0 -10 8 -10 18 0 10 -7 27 -15 38 -8 10 -15 28 -15 39 0 11
-7 29 -15 39 -8 11 -15 28 -15 38 0 10 -4 18 -10 18 -5 0 -10 5 -10 11 0 10
-8 31 -45 114 -7 17 -20 48 -30 70 -9 22 -21 51 -27 65 -6 14 -17 37 -24 52
-8 14 -14 33 -14 42 0 9 -4 16 -10 16 -5 0 -10 7 -10 16 0 9 -7 32 -16 52 -20
45 -38 88 -52 122 -42 101 -62 147 -95 220 -13 30 -32 75 -42 100 -10 25 -29
70 -43 100 -13 30 -31 69 -38 85 -7 17 -20 46 -28 67 -9 20 -16 41 -16 47 0 6
-4 11 -10 11 -5 0 -10 9 -10 19 0 11 -6 32 -14 48 -13 26 -35 73 -79 176 -10
21 -17 44 -17 52 0 8 -4 15 -9 15 -5 0 -12 14 -16 30 -4 17 -11 30 -16 30 -5
0 -9 10 -9 23 0 13 -7 32 -15 43 -8 10 -15 27 -15 37 0 10 -7 25 -15 33 -8 9
-15 24 -15 35 0 10 -4 19 -10 19 -5 0 -10 9 -10 21 0 11 -6 33 -14 47 -8 15
-24 48 -35 75 -23 53 -55 124 -78 177 -9 19 -22 47 -30 62 -7 14 -13 33 -13
42 0 9 -4 16 -10 16 -5 0 -10 11 -10 25 0 14 -7 28 -15 31 -8 4 -15 16 -15 29
0 13 -11 45 -24 72 -13 26 -27 56 -30 66 -8 25 -25 21 -19 -5z m127 -303 c-4
-8 -8 -15 -10 -15 -2 0 -4 7 -4 15 0 8 4 15 10 15 5 0 7 -7 4 -15z"/>
<path d="M2550 3426 c0 -9 5 -16 10 -16 6 0 10 4 10 9 0 6 -4 13 -10 16 -5 3
-10 -1 -10 -9z"/>
<path d="M1325 2970 c-3 -5 -1 -10 4 -10 6 0 11 5 11 10 0 6 -2 10 -4 10 -3 0
-8 -4 -11 -10z"/>
<path d="M2252 2690 c0 -14 2 -19 5 -12 2 6 2 18 0 25 -3 6 -5 1 -5 -13z"/>
<path d="M820 1437 c0 -9 5 -19 10 -22 6 -3 10 -15 10 -26 0 -10 4 -19 9 -19
5 0 12 -11 15 -25 4 -14 11 -25 16 -25 6 0 10 -9 10 -19 0 -11 4 -22 9 -26 6
-3 20 -27 33 -53 13 -26 25 -49 28 -52 3 -3 14 -24 25 -47 11 -24 23 -43 28
-43 4 0 7 -9 7 -19 0 -11 5 -23 11 -26 5 -4 14 -17 20 -28 5 -12 13 -29 18
-37 9 -17 28 -52 69 -132 15 -29 29 -55 32 -58 9 -9 30 -44 36 -60 3 -8 9 -22
14 -30 5 -8 20 -35 32 -60 13 -25 25 -47 28 -50 3 -3 15 -26 28 -52 13 -26 44
-66 70 -88 l47 -41 105 4 c103 3 128 9 220 51 45 21 45 21 15 24 -16 2 -31 -1
-33 -7 -2 -6 -24 -11 -48 -11 -40 0 -44 2 -44 25 0 14 -4 25 -10 25 -6 0 -10
29 -10 66 0 36 4 63 9 60 15 -10 19 107 4 120 -7 6 -13 28 -13 48 0 25 -4 36
-15 36 -10 0 -15 16 -18 63 -2 34 -3 22 -1 -27 2 -64 7 -93 19 -106 12 -13 15
-33 13 -71 -4 -77 -22 -67 -26 14 -2 52 -6 67 -18 67 -13 0 -15 21 -13 145 1
80 -1 148 -5 152 -3 3 -7 -9 -8 -28 -1 -19 -5 45 -8 141 l-5 175 -35 1 c-319
6 -541 18 -585 32 -27 8 -52 18 -55 21 -3 3 -13 12 -22 20 -16 12 -18 11 -18
-2z m697 -154 c1 -32 4 -79 8 -105 5 -33 3 -48 -4 -48 -7 0 -11 20 -11 50 0
38 -4 50 -15 50 -11 0 -15 11 -15 39 0 22 -5 42 -12 44 -7 3 -1 6 15 6 15 1
27 6 27 11 0 6 1 10 3 10 1 0 3 -26 4 -57z"/>
<path d="M1650 566 c0 -37 4 -66 10 -66 6 0 10 26 10 59 0 33 -4 63 -10 66 -6
4 -10 -18 -10 -59z"/>
</g>
</svg>
